<svg width="30" height="30" viewBox="0 0 30 30" fill="none" xmlns="http://www.w3.org/2000/svg">
    <g clip-path="url(#clip0_123_8)">
        <path d="M7.68495 24.819H8.27995V22.688H11.9679V24.819H12.5639V22.688H16.4259V24.819H17.0229V22.688H21.1319V24.819H21.7269V22.688H25.1439V22.094H21.7269V18.233H25.1439V17.637H21.7269V14.118H25.1439V13.524H21.7269V11.147H21.1319V13.524H17.0229V11.147H16.4259V13.524H12.5639V11.147H11.9679V13.524H8.27895V11.147H7.68495V13.524H3.74695V14.118H7.68495V17.637H3.74695V18.233H7.68495V22.094H3.74695V22.688H7.68495V24.819V24.819ZM12.5629 22.094V18.233H16.4249V22.094H12.5629ZM21.1319 22.094H17.0229V18.233H21.1319V22.094V22.094ZM21.1319 14.118V17.637H17.0229V14.118C17.0229 14.119 21.1319 14.119 21.1319 14.118ZM16.4259 14.118V17.637H12.5639V14.118C12.5639 14.119 16.4259 14.119 16.4259 14.118ZM8.27895 14.118H11.9669V17.637H8.27895V14.118ZM8.27895 18.233H11.9669V22.094H8.27895V18.233Z" fill="#010002"/>
        <path d="M29.207 2.50391L25.078 2.50791L24.475 2.50991V4.95791C24.475 5.61091 23.941 6.14491 23.287 6.14491H21.899C21.243 6.14491 20.711 5.61191 20.711 4.95791V2.51391L19.128 2.51591V4.95791C19.128 5.61091 18.593 6.14491 17.937 6.14491H16.549C15.894 6.14491 15.361 5.61191 15.361 4.95791V2.51691L13.679 2.52091V4.95891C13.679 5.61191 13.145 6.14591 12.49 6.14591H11.101C10.448 6.14591 9.913 5.61291 9.913 4.95891V2.52491H8.181V4.95891C8.181 5.61191 7.648 6.14591 6.993 6.14591H5.605C4.949 6.14591 4.416 5.61291 4.416 4.95891V2.52991L0 2.53391V28.6869H2.09H27.15L29.237 28.6809L29.207 2.50391ZM27.15 26.6059H2.09V9.89691H27.15V26.6059Z" fill="#010002"/>
        <path d="M5.60501 5.30295H6.99301C7.15601 5.30295 7.28901 5.16995 7.28901 5.00595V0.84595C7.28901 0.68095 7.15601 0.54895 6.99301 0.54895H5.60501C5.44001 0.54895 5.30701 0.68095 5.30701 0.84595V5.00595C5.30701 5.16995 5.44001 5.30295 5.60501 5.30295Z" fill="#010002"/>
        <path d="M11.101 5.30295H12.49C12.654 5.30295 12.787 5.16995 12.787 5.00595V0.84595C12.786 0.68095 12.653 0.54895 12.489 0.54895H11.1C10.937 0.54895 10.804 0.68095 10.804 0.84595V5.00595C10.805 5.16995 10.938 5.30295 11.101 5.30295Z" fill="#010002"/>
        <path d="M16.549 5.30295H17.937C18.103 5.30295 18.236 5.16995 18.236 5.00595V0.84595C18.235 0.68095 18.103 0.54895 17.937 0.54895H16.549C16.385 0.54895 16.252 0.68095 16.252 0.84595V5.00595C16.252 5.16995 16.385 5.30295 16.549 5.30295Z" fill="#010002"/>
        <path d="M21.8991 5.30295H23.2871C23.4511 5.30295 23.5831 5.16995 23.5831 5.00595V0.84595C23.5831 0.68095 23.4511 0.54895 23.2871 0.54895H21.8991C21.7351 0.54895 21.6021 0.68095 21.6021 0.84595V5.00595C21.6031 5.16995 21.7351 5.30295 21.8991 5.30295Z" fill="#010002"/>
    </g>
    <defs>
        <clipPath id="clip0_123_8">
            <rect width="29.237" height="29.237" fill="white"/>
        </clipPath>
    </defs>
</svg>
