<svg width="114" height="114" viewBox="0 0 114 114" fill="none" xmlns="http://www.w3.org/2000/svg">
    <path d="M53.4375 10.6875V18.1465C43.3345 19.8442 35.625 28.6809 35.625 39.1875C35.625 45.5193 38.5891 50.4038 42.5273 53.5488C46.4656 56.6938 51.2109 58.4473 55.6641 60.2285C60.1172 62.0098 64.2781 63.8188 67.0195 66.0176C69.761 68.2163 71.25 70.4429 71.25 74.8125C71.25 82.4941 64.8625 89.0625 57 89.0625C49.0957 89.0625 42.75 82.7168 42.75 74.8125V71.25H35.625V74.8125C35.625 85.3748 43.3345 94.1558 53.4375 95.8535V103.312H60.5625V95.8535C70.6934 94.1418 78.375 85.2356 78.375 74.8125C78.375 68.4668 75.4109 63.6101 71.4727 60.4512C67.5344 57.2922 62.7891 55.4414 58.3359 53.6602C53.8828 51.8789 49.7219 50.1672 46.9805 47.9824C44.239 45.7976 42.75 43.5293 42.75 39.1875C42.75 31.3806 49.1096 24.9375 57 24.9375C64.9043 24.9375 71.25 31.2832 71.25 39.1875V42.75H78.375V39.1875C78.375 28.6252 70.6655 19.8442 60.5625 18.1465V10.6875H53.4375Z" fill="black"/>
</svg>
