<svg width="87" height="90" viewBox="0 0 87 90" fill="none" xmlns="http://www.w3.org/2000/svg">
    <g clip-path="url(#clip0_130_25)">
        <path d="M86.2352 54.0852C85.6564 53.7955 84.9595 53.9658 84.5665 54.4946C82.8261 56.836 80.5627 58.9949 77.8373 60.9106C62.0439 71.993 40.3934 67.8361 29.5834 51.6354C18.9594 35.7161 22.7999 13.7036 38.1433 2.56626C38.6597 2.19136 38.8588 1.4992 38.6252 0.893527C38.3903 0.28659 37.7756 -0.0676448 37.161 0.024324C30.8433 1.00209 24.6451 3.52617 19.2342 7.32192C9.47569 14.1692 2.91113 24.5073 0.751223 36.433C-1.39931 48.3037 1.07774 60.3297 7.7259 70.2942C16.2726 83.0988 30.1371 89.99 44.2326 89.99C52.8203 89.99 61.4943 87.4315 69.101 82.0922C78.0457 75.8175 84.3887 66.4408 86.964 55.6893C87.1192 55.0439 86.8139 54.3736 86.2352 54.0852ZM67.5743 79.7659C48.7183 92.9988 22.8715 88.0386 9.96412 68.6957C3.73016 59.3546 1.40699 48.0798 3.42348 36.9508C5.44922 25.768 11.6062 16.0726 20.7608 9.64828C24.2681 7.18734 28.1273 5.29776 32.131 4.06181C19.3643 16.8169 16.9854 37.7075 27.3454 53.2339C39.0009 70.698 62.3387 75.1846 79.364 63.237C80.487 62.4486 81.5385 61.6205 82.5154 60.7553C79.4967 68.4101 74.326 75.0293 67.5743 79.7659Z" fill="black"/>
    </g>
    <defs>
        <clipPath id="clip0_130_25">
            <rect width="87" height="90" fill="white"/>
        </clipPath>
    </defs>
</svg>
