<svg width="29" height="29" viewBox="0 0 29 29" fill="none" xmlns="http://www.w3.org/2000/svg">
    <path d="M16.7645 8.86951H4.19544C3.84755 8.86951 3.56567 8.58763 3.56567 8.23975C3.56567 7.89187 3.84755 7.60999 4.19544 7.60999H16.7645C17.1123 7.60999 17.3943 7.89187 17.3943 8.23975C17.3943 8.58763 17.1123 8.86951 16.7645 8.86951Z" fill="black"/>
    <path d="M13.7642 11.6923H4.19543C3.84755 11.6923 3.56567 11.4104 3.56567 11.0625C3.56567 10.7146 3.84755 10.4327 4.19543 10.4327H13.7642C14.112 10.4327 14.394 10.7146 14.394 11.0625C14.394 11.4104 14.1119 11.6923 13.7642 11.6923Z" fill="black"/>
    <path d="M7.36246 20.1604H4.19544C3.84755 20.1604 3.56567 19.8785 3.56567 19.5306C3.56567 19.1828 3.84755 18.9009 4.19544 18.9009H7.36246C7.71026 18.9009 7.99222 19.1828 7.99222 19.5306C7.99222 19.8784 7.71017 20.1604 7.36246 20.1604Z" fill="black"/>
    <path d="M5.98958 22.9832H4.19544C3.84756 22.9832 3.56567 22.7013 3.56567 22.3534C3.56567 22.0055 3.84756 21.7236 4.19544 21.7236H5.98958C6.33738 21.7236 6.61935 22.0055 6.61935 22.3534C6.61935 22.7012 6.33738 22.9832 5.98958 22.9832Z" fill="black"/>
    <path d="M27.9953 2.92058L26.5588 1.8494C26.1971 1.57969 25.7523 1.46667 25.3057 1.53208C24.8594 1.59716 24.465 1.8321 24.1954 2.19375C24.1953 2.19392 24.1951 2.19417 24.195 2.19434L20.6338 7.02083V2.22759C20.6338 1.87971 20.352 1.59783 20.0041 1.59783H17.3943V0.629761C17.3943 0.281881 17.1124 0 16.7646 0C16.4167 0 16.1348 0.281881 16.1348 0.629761V1.59783H14.2519V0.629761C14.2519 0.281881 13.97 0 13.6222 0C13.2744 0 12.9924 0.281881 12.9924 0.629761V1.59783H11.1097V0.629761C11.1097 0.281881 10.8278 0 10.4799 0C10.132 0 9.85014 0.281881 9.85014 0.629761V1.59783H7.96749V0.629761C7.96749 0.281881 7.68552 0 7.33773 0C6.98985 0 6.70797 0.281881 6.70797 0.629761V1.59783H4.82523V0.629761C4.82523 0.281881 4.54327 0 4.19547 0C3.84759 0 3.56571 0.281881 3.56571 0.629761V1.59783H0.955811C0.608015 1.59783 0.32605 1.87971 0.32605 2.22759V28.3702C0.32605 28.7181 0.608015 29 0.955811 29H20.0042C20.352 29 20.6339 28.7181 20.6339 28.3702V15.7976L28.3394 5.28445C28.3395 5.28428 28.3397 5.2842 28.3398 5.28403C28.8963 4.53747 28.7419 3.47729 27.9953 2.92058ZM19.3743 27.7405H1.58557V2.85735H3.56571V3.82525C3.56571 4.17313 3.84759 4.45501 4.19547 4.45501C4.54327 4.45501 4.82523 4.17313 4.82523 3.82525V2.85735H6.70797V3.82525C6.70797 4.17313 6.98985 4.45501 7.33773 4.45501C7.68552 4.45501 7.96749 4.17313 7.96749 3.82525V2.85735H9.85022V3.82525C9.85022 4.17313 10.1321 4.45501 10.48 4.45501C10.8279 4.45501 11.1097 4.17313 11.1097 3.82525V2.85735H12.9925V3.82525C12.9925 4.17313 13.2744 4.45501 13.6222 4.45501C13.9701 4.45501 14.252 4.17313 14.252 3.82525V2.85735H16.1349V3.82525C16.1349 4.17313 16.4168 4.45501 16.7647 4.45501C17.1125 4.45501 17.3944 4.17313 17.3944 3.82525V2.85735H19.3744V8.74906L16.0901 13.2555H4.19547C3.84759 13.2555 3.56571 13.5373 3.56571 13.8852C3.56571 14.2331 3.84759 14.515 4.19547 14.515H15.1722C15.1722 14.515 11.5916 19.4282 11.591 19.4292C11.591 19.4292 11.5911 19.4292 11.5913 19.4292C11.5507 19.4857 11.5183 19.5495 11.4977 19.62L10.0576 24.5463H4.19547C3.84759 24.5463 3.56571 24.8282 3.56571 25.1761C3.56571 25.524 3.84759 25.8059 4.19547 25.8059C4.19547 25.8059 10.5363 25.8053 10.5397 25.8053C10.5397 25.8053 10.5396 25.8052 10.5395 25.8052C10.6548 25.8033 10.7699 25.7705 10.8713 25.705L15.5784 22.6629C15.6432 22.6211 15.697 22.569 15.7407 22.5107C15.7422 22.5087 19.3744 17.5258 19.3744 17.5258V27.7405H19.3743ZM12.4521 20.8434L14.1335 22.0972L11.6087 23.7289L12.4521 20.8434ZM15.1026 21.2487L12.9778 19.6643L22.9102 6.03588L25.035 7.62028L15.1026 21.2487ZM25.7824 6.60645L23.6575 5.02205L24.3357 4.11268L26.4605 5.69724L25.7824 6.60645ZM27.33 4.53109C27.3298 4.53126 27.3296 4.53151 27.3295 4.53168L27.2133 4.68744L25.0885 3.10288L25.2046 2.9472C25.2048 2.94703 25.205 2.94686 25.2051 2.94669C25.2737 2.85475 25.3739 2.79496 25.4874 2.77842C25.601 2.76196 25.7138 2.79068 25.8057 2.85912L27.2423 3.9303C27.4321 4.07178 27.4714 4.34132 27.33 4.53109Z" fill="black"/>
</svg>
