<svg width="90" height="91" viewBox="0 0 90 91" fill="none" xmlns="http://www.w3.org/2000/svg">
    <path d="M44.9999 11.2637C36.3181 11.2637 29.2551 18.4052 29.2551 27.1834C29.2551 31.4438 30.9167 36.2782 33.7 40.1154C36.8481 44.4556 40.8613 46.846 44.9999 46.846C49.1387 46.846 53.1517 44.4559 56.3 40.1154C59.0833 36.2782 60.7449 31.4438 60.7449 27.1834C60.7449 18.4052 53.6816 11.2637 44.9999 11.2637ZM44.9999 43.4519C42.002 43.4519 38.87 41.5043 36.407 38.1081C34.0661 34.8809 32.6119 30.6948 32.6119 27.1834C32.6119 20.2768 38.1691 14.6578 44.9999 14.6578C51.8306 14.6578 57.3878 20.2768 57.3878 27.1834C57.388 34.3544 51.5552 43.4519 44.9999 43.4519Z" fill="black"/>
    <path d="M44.9999 0C24.4798 0 7.78522 16.8799 7.78522 37.6281C7.78522 58.3762 24.4796 75.2563 44.9999 75.2563C65.5202 75.2563 82.2145 58.3764 82.2145 37.6281C82.2145 16.8799 65.5199 0 44.9999 0ZM44.9999 71.8621C38.264 71.8619 31.9817 69.8621 26.702 66.4197C26.8856 61.2223 29.2125 56.3497 33.1526 52.9666C34.7182 51.6223 37.0045 51.4754 38.8418 52.6012C40.8264 53.8172 42.8985 54.4338 45.0005 54.4338C47.1022 54.4338 49.1736 53.8174 51.1573 52.6021C52.9926 51.4775 55.2728 51.6189 56.831 52.9539C60.774 56.3322 63.1142 61.2189 63.2975 66.4202C58.0178 69.8623 51.7355 71.8621 44.9999 71.8621ZM66.4616 64.0859C65.7368 58.7722 63.1023 53.8783 59.0011 50.3644C56.3403 48.0849 52.4888 47.8174 49.4175 49.6994C46.514 51.4781 43.4857 51.4779 40.5816 49.6985C37.5067 47.8143 33.6483 48.0883 30.9796 50.3796C26.882 53.898 24.258 58.7779 23.5352 64.0836C15.9735 57.7999 11.1421 48.2741 11.1421 37.6284C11.1421 18.7514 26.3308 3.39416 44.9999 3.39416C63.6692 3.39416 78.8577 18.7514 78.8577 37.6281C78.8577 48.2752 74.0251 57.8021 66.4616 64.0859Z" fill="black"/>
    <path d="M67.7652 79.7339H22.2345C21.3076 79.7339 20.5561 80.4937 20.5561 81.431C20.5561 82.3682 21.3076 83.1281 22.2345 83.1281H67.7652C68.6922 83.1281 69.4437 82.3682 69.4437 81.431C69.4439 80.4937 68.6922 79.7339 67.7652 79.7339Z" fill="black"/>
    <path d="M67.7652 87.6058H22.2345C21.3076 87.6058 20.5561 88.3657 20.5561 89.3029C20.5561 90.2402 21.3076 91 22.2345 91H67.7652C68.6922 91 69.4437 90.2402 69.4437 89.3029C69.4439 88.3657 68.6922 87.6058 67.7652 87.6058Z" fill="black"/>
</svg>
