<svg width="30" height="29" viewBox="0 0 30 29" fill="none" xmlns="http://www.w3.org/2000/svg">
    <path d="M28.7087 10.2405H26.4137C26.3525 10.0571 26.224 9.86781 26.1567 9.68441L27.754 8.14035C28.2619 7.64933 28.2619 6.90392 27.754 6.41289L23.3537 2.15932C22.8458 1.6683 22.0747 1.6683 21.5667 2.15932L19.9694 3.70339C19.7797 3.57915 19.5838 3.51999 19.3941 3.45492V1.23643C19.3941 0.5561 18.8188 0 18.1151 0H11.8666C11.1628 0 10.5875 0.5561 10.5875 1.23643V3.45492C10.3978 3.51408 10.202 3.63831 10.0122 3.70339L8.41493 2.15932C7.90698 1.6683 7.13586 1.6683 6.62791 2.15932L2.22766 6.41289C1.97062 6.66136 1.84211 6.96899 1.84211 7.27662C1.84211 7.58425 1.97062 7.89188 2.22766 8.14035L3.82497 9.68441C3.69645 9.86781 3.63525 10.0571 3.56793 10.2405H1.27907C0.575275 10.2405 0 10.7966 0 11.4769V17.5231C0 18.2034 0.575275 18.7595 1.27907 18.7595H3.57405C3.63525 18.9429 3.76377 19.1322 3.83109 19.3156L2.23378 20.8596C1.97674 21.1081 1.84823 21.4157 1.84823 21.7234C1.84823 22.031 1.97674 22.3386 2.23378 22.5871L6.63403 26.8407C7.14198 27.3317 7.9131 27.3317 8.42105 26.8407L10.0184 25.2966C10.2081 25.4208 10.4039 25.48 10.5936 25.5451V27.7636C10.5936 28.4439 11.1689 29 11.8727 29H18.1273C18.8311 29 19.4064 28.4439 19.4064 27.7636V25.5451C19.5961 25.4859 19.7919 25.3617 19.9816 25.2966L21.5789 26.8407C22.0869 27.3317 22.858 27.3317 23.366 26.8407L27.7662 22.5871C28.2742 22.0961 28.2742 21.3507 27.7662 20.8596L26.1689 19.3156C26.2974 19.1322 26.3586 18.9429 26.4259 18.7595H28.7209C29.4247 18.7595 30 18.2034 30 17.5231V11.471C29.9878 10.7907 29.4125 10.2405 28.7087 10.2405ZM27.4357 16.2807H25.5202C24.9449 16.2807 24.4982 16.6534 24.3084 17.1444C24.1187 17.7597 23.8617 18.3809 23.5435 18.931C23.2252 19.4221 23.3537 20.0432 23.7332 20.41L25.0734 21.7056L22.4602 24.2377L21.12 22.9421C20.6732 22.5694 20.0979 22.5102 19.59 22.7587C19.0147 23.0663 18.3782 23.3148 17.7417 23.4982C17.2338 23.6224 16.8482 24.1134 16.8482 24.6695V26.5212H13.1457V24.6695C13.1457 24.1134 12.7601 23.6816 12.2521 23.4982C11.6157 23.3148 10.9731 23.0663 10.4039 22.7587C9.89596 22.451 9.25337 22.5753 8.87393 22.9421L7.52754 24.2377L4.91432 21.7115L6.25459 20.416C6.64015 19.9841 6.70135 19.428 6.44431 18.937C6.12607 18.3809 5.86903 17.7656 5.67931 17.1503C5.5508 16.6593 5.04284 16.2866 4.46756 16.2866H2.55202V12.7075H4.46756C5.04284 12.7075 5.4896 12.3348 5.67931 11.8437C5.86903 11.2285 6.12607 10.6073 6.44431 10.0571C6.76255 9.5661 6.63403 8.94492 6.25459 8.57813L4.91432 7.27662L7.52754 4.75051L8.86781 6.0461C9.31456 6.41881 9.88984 6.47797 10.3978 6.2295C10.9731 5.92187 11.6095 5.6734 12.246 5.49C12.754 5.36577 13.1395 4.87474 13.1395 4.31865V2.46695H16.8421V4.31865C16.8421 4.87474 17.2277 5.30661 17.7356 5.49C18.3721 5.6734 19.0147 5.92187 19.5838 6.2295C20.0918 6.53713 20.7344 6.41289 21.1138 6.0461L22.4602 4.75051L25.0734 7.27662L23.7332 8.57221C23.3476 9.00408 23.2864 9.56018 23.5435 10.0512C23.8617 10.6073 24.1187 11.2226 24.3084 11.8378C24.437 12.3288 24.9449 12.7015 25.5202 12.7015H27.4357V16.2807Z" fill="black"/>
    <path d="M14.9939 7.77356C11.1628 7.77356 8.04163 10.7966 8.04163 14.4941C8.04163 18.1916 11.1628 21.2146 14.9939 21.2146C18.825 21.2146 21.9462 18.1975 21.9462 14.4941C21.9462 10.7907 18.825 7.77356 14.9939 7.77356ZM14.9939 18.7476C12.5704 18.7476 10.5936 16.8368 10.5936 14.4941C10.5936 12.1514 12.5704 10.2405 14.9939 10.2405C17.4174 10.2405 19.3941 12.1514 19.3941 14.4941C19.3941 16.8368 17.4174 18.7476 14.9939 18.7476Z" fill="black"/>
</svg>
